# xmcd
#
# Track frame offsets:
#	150
#	12997
#	24071
#	35108
#	47894
#	59806
#	71543
#	84966
#	96991
#	109389
#	121313
#	132663
#	147424
#	159147
#	172684
#	182333
#	193619
#	204332
#	217030
#
# Disc length: 3075
#
# Revision: 2
# Processed by: cddbd v1.5.1PL0 Copyright (c) Steve Scherf et al.
# Submitted via: CDex 1.50
# Normalized: r1:DSETVAR1,TDELIM( - )
#
DISCID=0c0c0113
DTITLE=Various Artist - Country and Western Songs (bellaphon)
DYEAR=1995
DGENRE=Country
TTITLE0=Tammy Wynette and George Jones - Southern California
TTITLE1=Roger Miller - King Of The Road
TTITLE2=Billie Jo Spears - If You Want Me
TTITLE3=Johnny Horton - North To Alaska
TTITLE4=Guy Mitchell - Heartaches By The Number
TTITLE5=Tennessee Ernie Ford - Sixteen Tons
TTITLE6=Dean Martin - Rio Bravo
TTITLE7=Charlie Rich - The Most Beautiful Girl In The World
TTITLE8=Jack and Misty - Tennessee Birdwalk
TTITLE9=Frankie Lane - High Noon
TTITLE10=Billy "Crash" Craddock - Rub It In
TTITLE11=Kingston Trio - Tom Dooley
TTITLE12=Johnny Cash - Ring Of Fire
TTITLE13=Lee Marvin - Wandrin' Star
TTITLE14=New Christy Minstrels - Green Green
TTITLE15=Roy Orbison - Blue Bayou
TTITLE16=John D. Loudermilk - Blue Train
TTITLE17=Browns - The Three Bells
TTITLE18=Billie Joe Spears - What I've Got In Mind
EXTD=YEAR: 1995
EXTT0=
EXTT1=
EXTT2=
EXTT3=
EXTT4=
EXTT5=
EXTT6=
EXTT7=
EXTT8=
EXTT9=
EXTT10=
EXTT11=
EXTT12=
EXTT13=
EXTT14=
EXTT15=
EXTT16=
EXTT17=
EXTT18=
PLAYORDER=
